Coordinates
version=1
nRows=10
nColumns=34
inDegrees=yes

Units are S.I. units (second, meters, Newtons, ...)
If the header above contains a line with 'inDegrees', this indicates whether rotational values are in degrees (yes) or radians (no).

endheader
time	pelvis_tilt	pelvis_list	pelvis_rotation	pelvis_tx	pelvis_ty	pelvis_tz	hip_flexion_r	hip_adduction_r	hip_rotation_r	knee_angle_r	ankle_angle_r	subtalar_angle_r	mtp_angle_r	hip_flexion_l	hip_adduction_l	hip_rotation_l	knee_angle_l	ankle_angle_l	subtalar_angle_l	mtp_angle_l	lumbar_extension	lumbar_bending	lumbar_rotation	arm_flex_r	arm_add_r	arm_rot_r	elbow_flex_r	pro_sup_r	arm_flex_l	arm_add_l	arm_rot_l	elbow_flex_l	pro_sup_l
      7.30000000	     -1.36757499	      2.03535000	    -11.87625356	     -6.26324791	      0.96437010	     -1.08882027	     -9.75098226	     -0.15127558	    -13.00133626	     20.72905893	      2.59569226	    -20.72612431	      0.00000000	     30.40988061	      8.96088691	      8.23334780	     33.54679732	     -1.72738332	    -11.54872614	      0.00000000	    -48.82947247	     -3.94022217	      5.70517785	     35.69238443	     -5.29505690	      7.54267211	     91.65688981	    104.69451871	      0.77763012	    -13.93302680	      9.80606612	     53.83244366	     97.40411550
      7.31666670	     -1.63041833	      2.78152241	    -11.91561512	     -6.26583433	      0.95875381	     -1.08947157	    -10.35716151	     -0.68389428	    -15.04657733	     19.88949682	     -2.20131795	    -24.22503604	      0.00000000	     30.76809019	      9.60618290	      8.13882176	     32.62182288	     -2.56256595	    -11.67087604	      0.00000000	    -49.08676343	     -4.46723966	      5.75188879	     35.82833890	     -5.46859739	      7.10795844	     94.41873011	    104.26570224	     -0.97922366	    -14.08354840	     11.65660417	     52.04062327	     96.50497067
      7.33333330	     -2.50120399	      3.38628071	    -11.81952825	     -6.27145353	      0.94931249	     -1.09059199	     -9.84503928	     -0.95214565	    -16.75175174	     19.64912152	     -6.20094880	    -28.17440165	      0.00000000	     32.19328999	     10.00662430	      8.08599166	     32.30081349	     -3.05894005	    -11.79765149	      0.00000000	    -48.83514234	     -4.52778511	      5.96940766	     36.24844172	     -5.86360497	      7.36165565	     97.73731558	    103.84136584	     -2.90452539	    -14.49300055	     13.93958468	     50.78023816	     95.37297421
      7.35000000	     -3.92337737	      3.68093297	    -11.59392938	     -6.27811196	      0.93973963	     -1.09213339	     -8.28763394	     -0.84122472	    -18.12328161	     19.79835301	     -7.79696530	    -31.32988879	      0.00000000	     34.54803825	     10.04188416	      8.05667098	     32.51467232	     -3.09499799	    -11.86095825	      0.00000000	    -48.12441713	     -3.91316662	      6.16922572	     37.19318798	     -6.24507609	      8.36670752	    100.77041424	    103.60843816	     -5.36732060	    -15.17133202	     15.95632806	     50.15551901	     94.46279136
      7.36666670	     -5.80391007	      3.81446129	    -11.30149592	     -6.28319362	      0.92770943	     -1.09392440	     -5.90999843	     -0.50454775	    -18.84218661	     20.16855660	     -7.71555676	    -35.00000000	      0.00000000	     37.74468861	      9.97463966	      8.21447734	     33.40530883	     -2.56768230	    -11.70722077	      0.00000000	    -47.05274947	     -2.97188210	      6.18089052	     38.41573245	     -6.83361889	      9.86803008	    104.00741860	    103.50243951	     -8.57691577	    -15.90614750	     17.98377703	     49.83702784	     93.34742397
      7.38333330	     -7.85838003	      3.66932078	    -10.90858314	     -6.28686788	      0.92087064	     -1.09549472	     -3.35855362	      0.09749960	    -19.54703121	     20.42630330	     -4.49044364	    -35.00000000	      0.00000000	     41.17871263	      9.72785494	      8.54098017	     34.76381330	     -2.08474794	    -11.69448653	      0.00000000	    -45.96558234	     -1.58519135	      5.91030185	     39.74551200	     -7.45049207	     12.04804193	    107.28804404	    103.64781561	    -12.31760355	    -16.31085905	     19.48425299	     48.50871457	     92.64357228
      7.40000000	    -10.34761000	      3.25323689	    -10.78334616	     -6.28956587	      0.91509934	     -1.09621771	     -0.34314927	      1.06175788	    -19.67725766	     20.65618785	     -1.27493955	    -35.00000000	      0.00000000	     45.12173013	      9.03202431	      8.69506115	     36.63743546	     -1.44473257	    -11.23006425	      0.00000000	    -44.40779850	     -0.14354818	      6.18903684	     40.80396249	     -8.44029929	     14.31021449	    110.45139952	    104.12503262	    -15.52398215	    -15.21773107	     20.98328096	     43.69475774	     90.83994925
      7.41666670	    -12.30940563	      2.74353996	    -10.48172432	     -6.29074579	      0.91380709	     -1.09623207	      1.87027799	      2.05171454	    -19.97351388	     20.52437662	      0.60234730	    -35.00000000	      0.00000000	     48.17427269	      8.55122288	      9.20021015	     38.27353816	     -1.04011583	    -10.75988903	      0.00000000	    -43.18068610	      0.82247218	      6.81457674	     40.50597958	     -9.30073426	     14.12141619	    113.47744503	    105.16008677	    -16.52763919	    -12.79247332	     22.86256375	     33.08865928	     87.16965527
      7.43333330	    -13.70007677	      2.24338346	    -10.21795188	     -6.29091157	      0.91240583	     -1.09593004	      3.31743968	      2.94585817	    -20.28909946	     20.28426223	      1.70006687	    -35.00000000	      0.00000000	     50.43654507	      8.09438331	      9.43304173	     39.80152353	     -0.60802202	    -10.06927618	      0.00000000	    -42.27659448	      1.23159714	      8.26030095	     39.05412066	    -10.56389913	     12.57868670	    116.48182853	    106.10525404	    -16.76413552	    -10.61362516	     23.92036506	     23.14259676	     83.08583168
      7.45000000	    -14.65040554	      1.80171255	     -9.68808100	     -6.29078623	      0.91043314	     -1.09629204	      4.08309424	      3.60230921	    -21.28103081	     20.03622000	      1.23969967	    -35.00000000	      0.00000000	     52.03645398	      7.91500078	      9.60770894	     41.12009634	      0.02156417	     -9.18313675	      0.00000000	    -41.49359594	      1.35179692	      9.90711343	     37.25408813	    -11.92959566	      9.79167980	    118.38232436	    106.37539808	    -16.55038381	     -9.07348854	     23.86452445	     15.16985076	     80.23053049
